<svg width="24" height="24" viewBox="0 0 24 24" fill="none" xmlns="http://www.w3.org/2000/svg">
<g id="Icon=Iconly, State=Bold, Property 3=Heart">
<g id="Heart">
<path id="Path" d="M17.7098 2.79065C17.1108 2.58965 16.4808 2.50065 15.8498 2.50065C14.4598 2.49065 13.1108 2.95065 11.9998 3.79965C11.9098 3.73065 11.7998 3.66965 11.6998 3.61065C11.5998 3.54965 11.4198 3.40065 11.2698 3.32065L10.8898 3.15065C10.6898 3.04065 10.4808 2.96065 10.2598 2.88965C10.2398 2.87065 10.2098 2.84965 10.1698 2.83065H10.1108C9.51977 2.62965 8.90977 2.51965 8.27977 2.50065H8.16977C7.88977 2.50065 7.61077 2.51965 7.32977 2.56065H7.20977C6.90977 2.59965 6.61077 2.66965 6.32077 2.76965C2.58977 3.99065 1.25977 8.04065 2.38977 11.5806C3.02977 13.3896 4.06077 15.0306 5.40077 16.3796C7.34977 18.2596 9.48077 19.9196 11.7698 21.3396L12.0298 21.5006L12.2798 21.3496C14.5608 19.9196 16.6798 18.2596 18.6108 16.3896C19.9598 15.0406 20.9898 13.3896 21.6198 11.5806C22.7308 8.04065 21.4008 3.99065 17.7098 2.79065Z" fill="#70B9BE"/>
<path id="Path_2" d="M19.2998 8.93964C19.2698 9.36064 18.9198 9.68964 18.5098 9.70064C18.2898 9.67965 18.0798 9.58065 17.9398 9.41065C17.7998 9.24064 17.7308 9.01964 17.7498 8.79064V8.75964C17.7498 8.06065 17.3208 7.42964 16.6798 7.18964C16.2598 7.04064 16.0398 6.58064 16.1798 6.16064C16.3298 5.74064 16.7798 5.51964 17.1898 5.66064C18.4808 6.15064 19.3298 7.41964 19.2998 8.82064V8.93964Z" fill="#C6E3E5"/>
</g>
</g>
</svg>
