<svg width="24" height="24" viewBox="0 0 24 24" fill="none" xmlns="http://www.w3.org/2000/svg">
<g id="Icon=Home, State=True">
<g id="Home">
<path id="Home_2" d="M9.14373 20.7821V17.7152C9.14372 16.9381 9.77567 16.3067 10.5584 16.3018H13.4326C14.2189 16.3018 14.8563 16.9346 14.8563 17.7152V20.7732C14.8562 21.4473 15.404 21.9951 16.0829 22H18.0438C18.9596 22.0023 19.8388 21.6428 20.4872 21.0007C21.1356 20.3586 21.5 19.4868 21.5 18.5775V9.86585C21.5 9.13139 21.1721 8.43471 20.6046 7.9635L13.943 2.67427C12.7785 1.74912 11.1154 1.77901 9.98539 2.74538L3.46701 7.9635C2.87274 8.42082 2.51755 9.11956 2.5 9.86585V18.5686C2.5 20.4637 4.04738 22 5.95617 22H7.87229C8.19917 22.0023 8.51349 21.8751 8.74547 21.6464C8.97746 21.4178 9.10793 21.1067 9.10792 20.7821H9.14373Z" fill="#70B9BE"/>
<path id="Stroke 3 (Stroke)" fill-rule="evenodd" clip-rule="evenodd" d="M8.34045 11.8898C8.34045 11.4756 8.67624 11.1398 9.09045 11.1398H14.9097C15.3239 11.1398 15.6597 11.4756 15.6597 11.8898C15.6597 12.304 15.3239 12.6398 14.9097 12.6398H9.09045C8.67624 12.6398 8.34045 12.304 8.34045 11.8898Z" fill="#C6E3E5"/>
</g>
</g>
</svg>
