<svg version="1.1" id="Layer_1" xmlns="http://www.w3.org/2000/svg" xmlns:xlink="http://www.w3.org/1999/xlink" x="0px" y="0px"
	 width="512.000000pt" height="512.000000pt" viewBox="0 0 512 512" enable-background="new 0 0 512 512" xml:space="preserve">
<path fill="none" opacity="1.000000" stroke="none" 
	d="
M276.000000,513.000000 
	C184.022324,513.000000 92.544647,513.000000 1.033484,513.000000 
	C1.033484,342.397308 1.033484,171.794586 1.033484,1.095938 
	C171.561035,1.095938 342.122131,1.095938 512.841614,1.095938 
	C512.841614,171.666550 512.841614,342.333252 512.841614,513.000000 
	C434.127899,513.000000 355.313934,513.000000 276.000000,513.000000 
M303.716064,361.069946 
	C304.631287,360.764618 305.596558,360.561096 306.454254,360.138916 
	C321.965881,352.504150 335.184021,342.072723 346.053223,328.532196 
	C362.258087,308.344635 370.810303,285.422089 370.945984,259.580719 
	C371.152435,220.257568 371.091888,180.932129 370.911377,141.608749 
	C370.880676,134.920731 370.142059,128.154373 368.944031,121.567230 
	C363.368195,90.908516 347.317200,66.781059 321.893799,49.102821 
	C306.314697,38.269852 288.944366,31.958250 269.835510,29.784115 
	C255.672455,28.172697 241.791443,28.918161 228.302231,32.495056 
	C204.145126,38.900723 183.790009,51.689884 167.977600,71.440468 
	C151.789993,91.659714 143.186691,114.570892 143.052277,140.436340 
	C142.850540,179.259628 142.814575,218.086288 143.136810,256.907959 
	C143.212463,266.023285 144.186966,275.305176 146.157562,284.198090 
	C152.064514,310.855255 166.898712,332.190582 188.356781,348.541595 
	C204.233673,360.639771 222.403122,367.882172 242.572906,370.148560 
	C263.598206,372.511108 283.724945,370.208130 303.716064,361.069946 
M341.934265,370.554688 
	C332.776642,375.760864 323.791840,381.304718 314.423401,386.098999 
	C297.733093,394.640259 279.554291,397.805664 261.089539,398.815491 
	C253.125977,399.251068 245.045319,397.746887 237.030090,396.993713 
	C222.106354,395.591400 208.050964,390.883148 194.826645,384.207703 
	C175.774414,374.590424 159.296387,361.730225 145.922272,344.688660 
	C125.692589,318.911621 115.926796,289.679626 115.178825,257.309753 
	C115.007950,249.914703 109.862343,242.054550 100.598724,242.162582 
	C93.306297,242.247635 85.753670,246.648865 86.080635,257.194977 
	C86.345360,265.733704 87.140907,274.269501 88.027603,282.772583 
	C89.799370,299.763306 95.200722,315.771393 102.609550,331.008606 
	C113.837036,354.099396 129.205643,373.986786 149.456024,390.090118 
	C164.533447,402.079834 180.728745,412.061981 199.053558,417.880798 
	C212.911392,422.281189 227.246078,425.179871 242.000351,428.906464 
	C242.000351,441.390350 241.977859,455.191010 242.009811,468.991516 
	C242.025879,475.927460 245.846725,482.154449 251.087967,483.977905 
	C262.357574,487.898590 271.946777,480.982880 271.988678,468.830566 
	C272.036224,455.042633 271.999634,441.254425 271.999634,427.868500 
	C280.671204,426.352020 288.929901,425.288910 297.001068,423.417145 
	C313.870514,419.504944 329.751984,413.026123 344.628845,404.078461 
	C361.207184,394.107513 375.975616,381.939819 388.285339,367.065277 
	C399.219543,353.852844 408.347443,339.378998 414.872009,323.417328 
	C423.755707,301.684296 428.754059,279.129761 427.883728,255.578491 
	C427.551300,246.582962 421.269958,242.518234 413.281525,242.136230 
	C405.185516,241.749084 399.409821,248.399841 398.903687,256.394073 
	C398.335510,265.368988 397.467072,274.372070 395.958252,283.231567 
	C391.004791,312.317139 376.944916,336.755066 356.628296,357.749817 
	C352.294922,362.227814 347.191589,365.960632 341.934265,370.554688 
z"/>
<path fill="#97A2B0" opacity="1.000000" stroke="none" 
	d="
M303.378662,361.264465 
	C283.724945,370.208130 263.598206,372.511108 242.572906,370.148560 
	C222.403122,367.882172 204.233673,360.639771 188.356781,348.541595 
	C166.898712,332.190582 152.064514,310.855255 146.157562,284.198090 
	C144.186966,275.305176 143.212463,266.023285 143.136810,256.907959 
	C142.814575,218.086288 142.850540,179.259628 143.052277,140.436340 
	C143.186691,114.570892 151.789993,91.659714 167.977600,71.440468 
	C183.790009,51.689884 204.145126,38.900723 228.302231,32.495056 
	C241.791443,28.918161 255.672455,28.172697 269.835510,29.784115 
	C288.944366,31.958250 306.314697,38.269852 321.893799,49.102821 
	C347.317200,66.781059 363.368195,90.908516 368.944031,121.567230 
	C370.142059,128.154373 370.880676,134.920731 370.911377,141.608749 
	C371.091888,180.932129 371.152435,220.257568 370.945984,259.580719 
	C370.810303,285.422089 362.258087,308.344635 346.053223,328.532196 
	C335.184021,342.072723 321.965881,352.504150 306.454254,360.138916 
	C305.596558,360.561096 304.631287,360.764618 303.378662,361.264465 
M180.928543,106.403351 
	C175.075653,117.247742 172.265045,129.056244 172.138641,141.155334 
	C171.755783,177.801788 171.891190,214.455399 172.090363,251.104767 
	C172.131210,258.622742 172.784454,266.230011 174.092468,273.630524 
	C177.598160,293.465027 187.730301,309.942963 203.183075,322.339050 
	C221.473099,337.011078 242.505066,344.142700 266.550201,341.128540 
	C283.806549,338.965332 299.084442,332.541809 311.988312,321.313965 
	C332.414062,303.541290 342.058105,280.605133 342.014374,253.527023 
	C341.955444,217.043259 342.036285,180.559250 341.953888,144.075562 
	C341.943512,139.483841 341.716278,134.818588 340.891357,130.315277 
	C336.853424,108.270950 326.410065,89.997169 308.596191,76.062584 
	C293.361145,64.145241 275.774567,58.610489 256.843109,58.285316 
	C248.208038,58.137001 239.225830,60.128807 230.913071,62.764652 
	C208.368347,69.913216 191.905350,84.640816 180.928543,106.403351 
z"/>
<path fill="#97A2B0" opacity="1.000000" stroke="none" 
	d="
M342.188599,370.295715 
	C347.191589,365.960632 352.294922,362.227814 356.628296,357.749817 
	C376.944916,336.755066 391.004791,312.317139 395.958252,283.231567 
	C397.467072,274.372070 398.335510,265.368988 398.903687,256.394073 
	C399.409821,248.399841 405.185516,241.749084 413.281525,242.136230 
	C421.269958,242.518234 427.551300,246.582962 427.883728,255.578491 
	C428.754059,279.129761 423.755707,301.684296 414.872009,323.417328 
	C408.347443,339.378998 399.219543,353.852844 388.285339,367.065277 
	C375.975616,381.939819 361.207184,394.107513 344.628845,404.078461 
	C329.751984,413.026123 313.870514,419.504944 297.001068,423.417145 
	C288.929901,425.288910 280.671204,426.352020 271.999634,427.868500 
	C271.999634,441.254425 272.036224,455.042633 271.988678,468.830566 
	C271.946777,480.982880 262.357574,487.898590 251.087967,483.977905 
	C245.846725,482.154449 242.025879,475.927460 242.009811,468.991516 
	C241.977859,455.191010 242.000351,441.390350 242.000351,428.906464 
	C227.246078,425.179871 212.911392,422.281189 199.053558,417.880798 
	C180.728745,412.061981 164.533447,402.079834 149.456024,390.090118 
	C129.205643,373.986786 113.837036,354.099396 102.609550,331.008606 
	C95.200722,315.771393 89.799370,299.763306 88.027603,282.772583 
	C87.140907,274.269501 86.345360,265.733704 86.080635,257.194977 
	C85.753670,246.648865 93.306297,242.247635 100.598724,242.162582 
	C109.862343,242.054550 115.007950,249.914703 115.178825,257.309753 
	C115.926796,289.679626 125.692589,318.911621 145.922272,344.688660 
	C159.296387,361.730225 175.774414,374.590424 194.826645,384.207703 
	C208.050964,390.883148 222.106354,395.591400 237.030090,396.993713 
	C245.045319,397.746887 253.125977,399.251068 261.089539,398.815491 
	C279.554291,397.805664 297.733093,394.640259 314.423401,386.098999 
	C323.791840,381.304718 332.776642,375.760864 342.188599,370.295715 
z"/>
<path fill="none" opacity="1.000000" stroke="none" 
	d="
M180.995636,106.026764 
	C191.905350,84.640816 208.368347,69.913216 230.913071,62.764652 
	C239.225830,60.128807 248.208038,58.137001 256.843109,58.285316 
	C275.774567,58.610489 293.361145,64.145241 308.596191,76.062584 
	C326.410065,89.997169 336.853424,108.270950 340.891357,130.315277 
	C341.716278,134.818588 341.943512,139.483841 341.953888,144.075562 
	C342.036285,180.559250 341.955444,217.043259 342.014374,253.527023 
	C342.058105,280.605133 332.414062,303.541290 311.988312,321.313965 
	C299.084442,332.541809 283.806549,338.965332 266.550201,341.128540 
	C242.505066,344.142700 221.473099,337.011078 203.183075,322.339050 
	C187.730301,309.942963 177.598160,293.465027 174.092468,273.630524 
	C172.784454,266.230011 172.131210,258.622742 172.090363,251.104767 
	C171.891190,214.455399 171.755783,177.801788 172.138641,141.155334 
	C172.265045,129.056244 175.075653,117.247742 180.995636,106.026764 
z"/>
</svg>