<svg width="265" height="175" viewBox="0 0 265 175" fill="none" xmlns="http://www.w3.org/2000/svg">
<rect width="265" height="175" rx="16" fill="#70B9BE"/>
<mask id="mask0_1149_1024" style="mask-type:alpha" maskUnits="userSpaceOnUse" x="0" y="0" width="265" height="175">
<rect width="265" height="175" rx="16" fill="white"/>
</mask>
<g mask="url(#mask0_1149_1024)">
<ellipse cx="272.027" cy="30.5234" rx="151.572" ry="153.634" fill="url(#paint0_linear_1149_1024)" fill-opacity="0.3"/>
<path d="M-135.685 16.3535C-127.738 14.2568 -106.27 17.2374 -83.9708 45.9344C-56.0971 81.8055 1.82346 154.954 40.6138 107.926C79.4041 60.898 89.1772 11.3826 65.9992 5.69321C42.8213 0.00382569 28.944 49.9659 88.3834 72.1362C147.823 94.3065 219.644 44.6073 217.644 -31.1374" stroke="#3DA0A7"/>
<path d="M276.971 168.512C280.01 196.907 253.385 204.901 240.505 198.479C194.459 174.886 214.845 163.384 234.61 137.004C254.375 110.623 273.933 140.118 276.971 168.512Z" stroke="#3DA0A7"/>
</g>
<path d="M27.4057 55.2497C23.6432 59.0634 17.323 58.8404 17.323 58.8404C17.323 58.8404 17.1031 52.4343 20.8656 48.6206C24.6281 44.8069 30.9483 45.0299 30.9483 45.0299C30.9483 45.0299 31.1682 51.436 27.4057 55.2497Z" fill="#FFF1CE"/>
<path d="M108.637 65.1211C108.79 64.8513 108.81 64.5267 108.693 64.2414L105.236 55.8177C104.92 55.0475 103.86 54.9866 103.449 55.7149L101.929 58.4082C101.777 58.678 101.757 59.0026 101.874 59.2879L105.33 67.7116C105.646 68.4817 106.707 68.5426 107.118 67.8143L108.637 65.1211Z" fill="#FFF1CE"/>
<ellipse cx="51.1931" cy="9.15717" rx="4.01515" ry="4.06977" fill="#FFF1CE"/>
<defs>
<linearGradient id="paint0_linear_1149_1024" x1="301.136" y1="-25.4359" x2="156.175" y2="166.041" gradientUnits="userSpaceOnUse">
<stop stop-color="white"/>
<stop offset="1" stop-color="white" stop-opacity="0"/>
</linearGradient>
</defs>
</svg>
