<svg width="512" height="512" viewBox="0 0 512 512" fill="none" xmlns="http://www.w3.org/2000/svg">
<rect width="512" height="512" fill="#A6D4D7"/>
<path d="M147.02 352.017C108.53 345.563 79.2019 312.1 79.2019 271.791C79.2019 226.861 115.639 190.439 160.583 190.439C166.168 190.439 171.62 191.001 176.889 192.072" stroke="white" stroke-width="30" stroke-linecap="round"/>
<path d="M366.777 352.017C405.27 345.563 434.601 312.1 434.601 271.791C434.601 226.861 398.154 190.439 353.214 190.439C347.629 190.439 342.177 191.001 336.908 192.072" stroke="white" stroke-width="30" stroke-linecap="round"/>
<path d="M176.711 237.89C175.037 231.389 174.148 224.574 174.148 217.552C174.148 172.622 210.583 136.2 255.528 136.2C300.474 136.2 336.909 172.622 336.909 217.552C336.909 224.574 336.018 231.389 334.346 237.89" stroke="white" stroke-width="30" stroke-linecap="round"/>
<path d="M254.993 283.213V325.817" stroke="white" stroke-width="30" stroke-linecap="round"/>
<path d="M179.625 286.789C176.217 294.397 182.463 323.4 189.846 328.155" stroke="white" stroke-width="30" stroke-linecap="round"/>
<path d="M335.953 286.789C339.359 294.397 333.114 323.4 325.732 328.155" stroke="white" stroke-width="30" stroke-linecap="round"/>
</svg>
