<svg width="375" height="812" viewBox="0 0 375 812" fill="none" xmlns="http://www.w3.org/2000/svg">
<g clip-path="url(#clip0_1_1299)">
<rect width="375" height="812" fill="#70B9BE"/>
<path d="M449.514 856.169C462.083 813.964 461.374 721.234 405.163 685.94C348.953 650.647 289.808 653.497 216.474 692.743C142.356 732.41 47.165 728.838 64.211 660.425C87.429 567.241 98.056 530.621 32.4099 555.502C-33.2362 580.384 -6.44461 519.262 -80.5082 532.056C-139.759 542.291 -196.935 633.317 -251.649 531.222" stroke="#3DA0A7"/>
<path d="M195.271 908.711C253.657 849.163 319.952 893.352 332.781 828.644C344.527 769.4 255.469 708.131 204.531 765.265C168.026 806.211 115.595 867.257 135.656 901.68" stroke="#3DA0A7" stroke-linecap="round"/>
<path d="M502.637 -110.177C490.218 -106.724 463.389 -85.817 455.423 -29.8112C445.465 40.1962 423.691 183.806 334.473 151.38C245.255 118.955 193.497 60.3343 220.541 34.452C247.585 8.56976 305.262 64.5545 241.8 141.082C178.338 217.609 42.2009 207.63 -13.9634 104.603" stroke="#3DA0A7"/>
<path d="M118.922 -79.5327C76.9515 -7.46804 1.83297 -34.018 5.29143 31.8583C8.45791 92.1728 109.837 129.688 145.181 61.7922C170.509 13.1347 206.339 -58.9208 178.436 -87.3613" stroke="#3DA0A7" stroke-linecap="round"/>
</g>
<defs>
<clipPath id="clip0_1_1299">
<rect width="375" height="812" fill="white"/>
</clipPath>
</defs>
</svg>
