<svg width="375" height="811" viewBox="0 0 375 811" fill="none" xmlns="http://www.w3.org/2000/svg">
<rect y="-1" width="375" height="812" fill="#70B9BE"/>
<path d="M501.913 -154.589C489.494 -151.136 462.665 -130.229 454.699 -74.2228C444.741 -4.21546 422.968 139.394 333.75 106.969C244.531 74.5429 192.773 15.9227 219.818 -9.95958C246.862 -35.8419 304.539 20.1429 241.077 96.6701C177.615 173.197 41.4773 163.219 -14.6871 60.1916" stroke="#3DA0A7"/>
<path d="M518 595.746C532.081 554.021 534.714 461.325 479.812 424.03C424.909 386.734 365.701 387.451 291 424.03C215.5 461 120.5 454 140 386.246C166.56 293.959 178.5 257.746 112 280.246C45.5 302.746 74.4765 242.629 -1.02476e-06 252.746C-59.5812 260.839 -120 349.746 -171 245.746" stroke="#3DA0A7"/>
</svg>
