<svg width="340" height="340" viewBox="0 0 340 340" fill="none" xmlns="http://www.w3.org/2000/svg">
<circle opacity="0.1" cx="170" cy="170" r="170" fill="white"/>
<path d="M219.055 225.476C216.315 225.476 216.315 229.837 219.055 229.837C221.795 229.745 221.795 225.476 219.055 225.476Z" fill="#FFF1CE"/>
<path d="M57.0552 186.867C54.3149 186.867 54.3149 191.229 57.0552 191.229C59.7954 191.136 59.7954 186.867 57.0552 186.867Z" fill="#FFF1CE"/>
<path d="M286.581 270.213C285.394 270.492 284.206 271.791 283.476 272.44C282.106 273.647 280.644 274.575 279 275.41C279.548 276.245 280.827 276.709 281.74 276.895C282.745 277.081 283.658 276.895 284.663 276.709C285.12 276.617 285.577 276.431 286.033 276.245C287.403 275.41 289.778 271.976 288.043 270.584C287.586 270.213 287.038 270.12 286.581 270.213Z" fill="#7CA661"/>
<path d="M153.016 213.295H152.925C152.377 213.388 151.92 214.037 152.012 214.594C152.012 215.151 152.377 215.801 152.925 215.893H153.016C153.839 216.079 154.661 215.522 154.661 214.594C154.661 213.666 153.839 213.202 153.016 213.295Z" fill="#FFF1CE"/>
<path d="M60.8496 100.506C58.3835 100.506 58.3835 104.404 60.8496 104.404C63.3158 104.404 63.3158 100.506 60.8496 100.506Z" fill="#FFF1CE"/>
<path d="M4.84964 116.762C2.38345 116.762 2.38345 120.66 4.84964 120.66C7.31583 120.66 7.31583 116.762 4.84964 116.762Z" fill="#FFF1CE"/>
<path d="M140.129 103.012L137.754 100.506C137.754 100.506 137.389 106.539 132 108.766L134.192 110.436C134.192 110.436 138.759 108.58 140.129 103.012Z" fill="#AEDC90"/>
<path d="M285.85 78.1538C283.383 78.1538 283.383 82.0515 285.85 82.0515C288.316 82.0515 288.316 78.1538 285.85 78.1538Z" fill="#FFF1CE"/>
<path d="M48.7544 61.9027C48.1151 61.253 47.293 60.8818 46.3796 60.8818C45.4662 60.8818 44.5528 61.253 44.0047 61.9027C43.4567 62.5523 43 63.4803 43 64.3155C43 65.2436 43.3654 66.1716 44.0047 66.7284C44.6441 67.378 45.4662 67.7492 46.3796 67.7492C47.293 67.7492 48.2064 67.378 48.7544 66.7284C49.3938 66.1716 49.7592 65.1508 49.7592 64.3155C49.6678 63.4803 49.3938 62.5523 48.7544 61.9027Z" fill="#FFF1CE"/>
<path d="M195 43.6094C197.284 54.9313 203.951 64.6756 210.437 74.1414C212.994 77.8535 215.734 82.4937 219.479 85.185C220.575 83.7929 215.643 76.8327 214.729 75.2551C212.72 71.6358 210.619 68.1093 208.427 64.5828C204.134 57.5298 199.658 50.5696 195 43.6094Z" fill="#7CA661"/>
<path d="M210.071 67.5523C208.245 60.7777 207.24 53.7247 204.408 47.2285C212.537 58.4576 218.475 70.8932 221.58 85.092C219.388 83.9783 217.744 83.2359 216.282 81.1943C213.177 77.2966 211.35 72.378 210.071 67.5523Z" fill="#AEDC90"/>
<path d="M197.832 64.6753C200.389 69.3154 203.495 73.5843 207.331 77.2036C209.797 79.5237 217.927 86.4839 221.489 85.1847C218.84 81.287 213.268 77.1109 209.797 74.0484C205.961 70.8003 201.942 67.645 197.832 64.6753Z" fill="#AEDC90"/>
<path d="M235.007 89.1755C235.19 97.5277 223.589 102.261 217.104 100.033C214.273 99.1054 212.446 96.8781 212.903 92.9804C213.359 89.1755 215.095 85.4634 217.926 83.0505C220.849 80.6376 224.868 79.524 228.522 80.7304C232.084 81.9369 234.916 85.3706 235.007 89.1755Z" fill="#EA7273"/>
<path d="M235.007 89.1755C235.19 97.5278 223.589 102.261 217.104 100.033C217.287 99.9406 217.561 99.8478 217.835 99.6622C220.941 98.5486 223.955 98.2702 226.786 96.3213C230.075 94.0012 232.449 89.8251 231.353 85.9274C230.805 83.9786 229.527 82.4009 228.43 80.7305C232.084 81.9369 234.916 85.3706 235.007 89.1755Z" fill="#EA6061"/>
<path d="M215.369 94.6508C215.552 94.9292 215.734 95.2077 216.008 95.3933C216.374 95.6717 216.922 95.7645 217.47 95.6717C218.84 95.4861 219.936 94.4652 220.393 93.166C220.849 91.8668 220.667 90.3819 220.027 89.2683C219.114 87.5978 217.013 86.7626 215.734 88.5259C214.456 90.1035 214.364 92.8876 215.369 94.6508Z" fill="#EA8889"/>
<path d="M222.493 85.092C222.219 84.628 221.671 84.4424 221.123 84.4424C220.758 84.4424 220.21 84.5352 219.936 84.8136C219.57 85.092 219.296 85.6488 219.479 86.2056C219.57 86.8553 219.936 87.3193 220.575 87.5049C221.123 87.6905 221.763 87.5977 222.219 87.1337C222.767 86.6697 222.859 85.7416 222.493 85.092Z" fill="#EA8889"/>
<path d="M221.854 88.062C221.854 88.062 221.763 88.062 221.671 88.062H221.58C221.489 88.062 221.397 88.062 221.306 88.062C221.306 88.062 221.215 88.062 221.215 88.1548C220.94 88.2476 220.849 88.526 220.758 88.8044C220.758 88.99 220.758 89.1756 220.758 89.3612V89.4541C220.849 89.6397 221.032 89.8253 221.215 89.9181C221.306 90.0109 221.489 90.0109 221.58 90.0109C222.128 90.1965 222.676 89.7325 222.767 89.0828C222.859 88.6188 222.402 88.062 221.854 88.062Z" fill="#EA8889"/>
<path d="M227.517 97.4348C227.7 98.2701 229.161 98.1773 229.892 98.3629C230.897 98.6413 231.536 99.6621 231.536 100.683C231.536 101.611 231.079 102.539 231.536 103.281C231.993 103.931 232.997 103.931 233.728 103.838C232.997 103.838 232.267 103.189 232.084 102.446C231.901 101.704 232.267 100.869 232.358 100.126C232.541 99.0125 232.267 97.7132 231.536 96.878C230.714 96.0428 227.7 95.1148 227.426 96.9708C227.517 97.2492 227.517 97.342 227.517 97.4348Z" fill="#EA6061"/>
<path d="M232.815 90.5676C232.541 91.0316 232.541 91.4956 232.358 91.9596C232.176 92.6093 231.81 93.2589 231.445 93.9085C230.714 95.0221 229.801 95.7646 228.705 96.5998C228.431 96.7854 228.613 97.2494 228.979 97.0638C230.257 96.507 231.262 95.3933 231.993 94.2797C232.632 93.3517 233.546 91.6812 233.18 90.5676C233.089 90.382 232.906 90.4748 232.815 90.5676Z" fill="white"/>
<path d="M232.906 86.7622C232.815 86.6694 232.724 86.6694 232.632 86.6694H232.541C232.45 86.6694 232.45 86.6694 232.45 86.7622C232.267 87.1334 232.541 87.4119 232.724 87.7831C232.906 88.2471 232.906 88.7111 232.906 89.2679C232.906 89.6391 233.454 89.6391 233.454 89.2679C233.454 88.3399 233.272 87.5975 232.906 86.7622Z" fill="white"/>
<path d="M33.9352 212.267C32.3824 213.195 30.921 214.03 29.3682 214.958C28.4548 215.515 27.5414 215.979 26.902 216.814C26.1713 217.65 25.4406 219.134 26.628 219.877C27.8154 220.619 30.0076 219.413 31.0123 218.763C32.0171 218.114 33.0218 217.371 33.6612 216.258C34.94 214.216 33.7525 212.36 33.9352 212.267Z" fill="#7CA661"/>
<path d="M76.1511 95.2789C76.6078 97.5989 78.252 99.455 80.2614 100.661C82.1796 101.775 84.2804 101.961 86.4726 101.868C86.5639 101.868 86.6552 101.868 86.7466 101.868C86.7466 101.775 86.7466 101.682 86.7466 101.589C86.5639 98.6198 85.5592 95.8357 83.9151 93.33C82.3623 91.01 80.2614 89.1539 78.1606 87.2979C76.6078 89.6179 75.6031 92.6804 76.1511 95.2789Z" fill="#AEDC90"/>
<path d="M76.1511 95.2789C76.6078 97.5989 78.252 99.455 80.2614 100.661C82.1796 101.775 84.2804 101.961 86.4726 101.868C86.5639 101.868 86.6552 101.868 86.7466 101.868C77.2472 96.4853 78.1606 87.2979 78.1606 87.2979C76.6078 89.6179 75.6031 92.6804 76.1511 95.2789Z" fill="#7CA661"/>
<path d="M78.5258 91.9381C78.9825 94.1654 80.2613 96.3926 81.7228 98.0631C83.0015 99.5479 84.5543 100.94 86.3811 101.868C86.4725 101.868 86.5638 101.868 86.6552 101.868C86.6552 101.775 86.6552 101.682 86.6552 101.59C84.9197 100.569 83.2756 99.4551 81.9968 97.7847C81.2661 96.8566 80.6267 95.9286 80.0786 94.9078C79.5306 93.887 79.2566 92.8661 78.8912 91.8453C78.7999 91.6597 78.5258 91.7525 78.5258 91.9381Z" fill="#39700B"/>
<path d="M256.595 42.4464C256.139 44.7664 254.495 46.6225 252.485 47.8289C250.567 48.9426 248.466 49.1281 246.274 49.0353C246.183 49.0353 246.091 49.0353 246 49.0353C246 48.9425 246 48.8497 246 48.7569C246.183 45.7873 247.187 43.0032 248.832 40.4975C250.384 38.1774 252.485 36.3214 254.586 34.4653C256.139 36.7854 257.143 39.8479 256.595 42.4464Z" fill="#AEDC90"/>
<path d="M256.595 42.4464C256.139 44.7664 254.495 46.6225 252.485 47.8289C250.567 48.9426 248.466 49.1281 246.274 49.0353C246.183 49.0353 246.091 49.0353 246 49.0353C255.499 43.6528 254.586 34.4653 254.586 34.4653C256.139 36.7854 257.143 39.8479 256.595 42.4464Z" fill="#7CA661"/>
<path d="M254.221 39.1056C253.764 41.3329 252.485 43.5601 251.024 45.2306C249.745 46.7154 248.192 48.1074 246.365 49.0355C246.274 49.0355 246.183 49.0355 246.091 49.0355C246.091 48.9427 246.091 48.8499 246.091 48.7571C247.827 47.7362 249.471 46.6226 250.75 44.9522C251.481 44.0241 252.12 43.0961 252.668 42.0753C253.216 41.0544 253.49 40.0336 253.855 39.0128C253.947 38.8272 254.221 38.92 254.221 39.1056Z" fill="#39700B"/>
<path d="M85.4 215.779H76.4V257.537H85.4V215.779Z" fill="#D2953D"/>
<path d="M82.5 215.779H76.4V257.537H82.5V215.779Z" fill="#EDC75E"/>
<path d="M93.1 220.352H84.1V262.11H93.1V220.352Z" fill="#D2953D"/>
<path d="M90.2 220.352H84.1V262.11H90.2V220.352Z" fill="#EDC75E"/>
<path d="M105.43 216.825L96.5536 215.315L89.768 256.501L98.6447 258.011L105.43 216.825Z" fill="#D2953D"/>
<path d="M102.544 216.379L96.528 215.356L89.7423 256.542L95.7588 257.565L102.544 216.379Z" fill="#EDC75E"/>
<path d="M108.856 221.587L99.8577 221.786L100.75 263.535L109.748 263.337L108.856 221.587Z" fill="#D2953D"/>
<path d="M105.955 221.619L99.8567 221.753L100.749 263.503L106.847 263.369L105.955 221.619Z" fill="#EDC75E"/>
<path d="M117.455 217.523L108.457 217.722L109.35 259.471L118.348 259.273L117.455 217.523Z" fill="#D2953D"/>
<path d="M114.555 217.554L108.456 217.689L109.349 259.439L115.448 259.304L114.555 217.554Z" fill="#EDC75E"/>
<path d="M126.61 224.597L117.659 223.647L113.392 265.18L122.344 266.129L126.61 224.597Z" fill="#D2953D"/>
<path d="M123.709 224.344L117.642 223.701L113.376 265.233L119.443 265.877L123.709 224.344Z" fill="#EDC75E"/>
<path d="M118.6 244.939C118.6 248.19 110.2 250.832 99.9 250.832C89.6 250.832 81.2 248.19 81.2 244.939H74L78.2 301.023H121.7L125.9 244.939H118.6Z" fill="#DB5955"/>
<path d="M220.9 286.29C221.6 283.039 221.9 279.686 221.9 276.232C221.9 249.714 204.9 231.426 178.8 231.426C152.7 231.426 121.2 249.714 121.2 276.232C121.2 279.686 110.6 283.039 111.3 286.29H220.9Z" fill="#935A40"/>
<path d="M238.6 269.221C239.9 268.713 240.8 267.393 240.8 265.869C240.8 263.837 239.2 262.211 237.2 262.211C235.2 262.211 233.6 263.837 233.6 265.869C233.6 265.97 233.6 266.072 233.7 266.173H201.9V272.168H233.7C233.7 272.269 233.6 272.371 233.6 272.473C233.6 274.505 235.2 276.13 237.2 276.13C239.2 276.13 240.8 274.505 240.8 272.473C240.8 271.05 239.9 269.831 238.6 269.221Z" fill="white"/>
<path d="M225.1 269.222C225.1 277.553 210.1 284.36 201.9 284.36C193.7 284.36 187 277.553 187 269.222C187 260.89 193.7 254.083 201.9 254.083C210.1 254.083 225.1 260.89 225.1 269.222Z" fill="#BC7253"/>
<path d="M141.3 262.312C141.3 262.312 130.9 267.596 133 274.301C134.4 278.772 166.4 276.638 167.8 272.269C169.2 268.002 141.6 266.986 141.6 266.986L141.3 262.312Z" fill="#BC7253"/>
<path d="M126.8 290.354C130.556 290.354 133.6 287.261 133.6 283.445C133.6 279.63 130.556 276.537 126.8 276.537C123.044 276.537 120 279.63 120 283.445C120 287.261 123.044 290.354 126.8 290.354Z" fill="#DB5955"/>
<path d="M125.2 285.579C127.464 285.579 129.3 283.714 129.3 281.414C129.3 279.113 127.464 277.248 125.2 277.248C122.936 277.248 121.1 279.113 121.1 281.414C121.1 283.714 122.936 285.579 125.2 285.579Z" fill="#DD7260"/>
<path d="M142 284.36C142 287.611 139.4 290.354 136.1 290.354C132.8 290.354 130.2 287.713 130.2 284.36C130.2 281.108 132.8 278.365 136.1 278.365C139.4 278.365 142 281.108 142 284.36Z" fill="#D2953D"/>
<path d="M134.8 286.696C136.678 286.696 138.2 285.15 138.2 283.242C138.2 281.334 136.678 279.788 134.8 279.788C132.922 279.788 131.4 281.334 131.4 283.242C131.4 285.15 132.922 286.696 134.8 286.696Z" fill="#EDC75E"/>
<path d="M148.8 290.354C152.556 290.354 155.6 287.261 155.6 283.445C155.6 279.63 152.556 276.537 148.8 276.537C145.044 276.537 142 279.63 142 283.445C142 287.261 145.044 290.354 148.8 290.354Z" fill="#DB5955"/>
<path d="M147.2 285.579C149.464 285.579 151.3 283.714 151.3 281.414C151.3 279.113 149.464 277.248 147.2 277.248C144.936 277.248 143.1 279.113 143.1 281.414C143.1 283.714 144.936 285.579 147.2 285.579Z" fill="#DD7260"/>
<path d="M158.1 290.354C161.358 290.354 164 287.67 164 284.36C164 281.049 161.358 278.365 158.1 278.365C154.841 278.365 152.2 281.049 152.2 284.36C152.2 287.67 154.841 290.354 158.1 290.354Z" fill="#D2953D"/>
<path d="M156.8 286.696C158.678 286.696 160.2 285.15 160.2 283.242C160.2 281.334 158.678 279.788 156.8 279.788C154.922 279.788 153.4 281.334 153.4 283.242C153.4 285.15 154.922 286.696 156.8 286.696Z" fill="#EDC75E"/>
<path d="M170.8 290.354C174.556 290.354 177.6 287.261 177.6 283.445C177.6 279.63 174.556 276.537 170.8 276.537C167.044 276.537 164 279.63 164 283.445C164 287.261 167.044 290.354 170.8 290.354Z" fill="#DB5955"/>
<path d="M169.1 285.579C171.364 285.579 173.2 283.714 173.2 281.414C173.2 279.113 171.364 277.248 169.1 277.248C166.836 277.248 165 279.113 165 281.414C165 283.714 166.836 285.579 169.1 285.579Z" fill="#DD7260"/>
<path d="M180.1 290.354C183.358 290.354 186 287.67 186 284.36C186 281.049 183.358 278.365 180.1 278.365C176.841 278.365 174.2 281.049 174.2 284.36C174.2 287.67 176.841 290.354 180.1 290.354Z" fill="#D2953D"/>
<path d="M178.7 286.696C180.578 286.696 182.1 285.15 182.1 283.242C182.1 281.334 180.578 279.788 178.7 279.788C176.822 279.788 175.3 281.334 175.3 283.242C175.3 285.15 176.822 286.696 178.7 286.696Z" fill="#EDC75E"/>
<path d="M192.8 290.354C196.556 290.354 199.6 287.261 199.6 283.445C199.6 279.63 196.556 276.537 192.8 276.537C189.044 276.537 186 279.63 186 283.445C186 287.261 189.044 290.354 192.8 290.354Z" fill="#DB5955"/>
<path d="M191.1 285.579C193.364 285.579 195.2 283.714 195.2 281.414C195.2 279.113 193.364 277.248 191.1 277.248C188.836 277.248 187 279.113 187 281.414C187 283.714 188.836 285.579 191.1 285.579Z" fill="#DD7260"/>
<path d="M207.9 284.36C207.9 287.611 205.3 290.354 202 290.354C198.8 290.354 196.1 287.713 196.1 284.36C196.1 281.108 198.7 278.365 202 278.365C205.3 278.467 207.9 281.108 207.9 284.36Z" fill="#D2953D"/>
<path d="M200.7 286.696C202.578 286.696 204.1 285.15 204.1 283.242C204.1 281.334 202.578 279.788 200.7 279.788C198.822 279.788 197.3 281.334 197.3 283.242C197.3 285.15 198.822 286.696 200.7 286.696Z" fill="#EDC75E"/>
<path d="M214.7 290.354C218.456 290.354 221.5 287.261 221.5 283.445C221.5 279.63 218.456 276.537 214.7 276.537C210.944 276.537 207.9 279.63 207.9 283.445C207.9 287.261 210.944 290.354 214.7 290.354Z" fill="#DB5955"/>
<path d="M213.1 285.579C215.364 285.579 217.2 283.714 217.2 281.414C217.2 279.113 215.364 277.248 213.1 277.248C210.836 277.248 209 279.113 209 281.414C209 283.714 210.836 285.579 213.1 285.579Z" fill="#DD7260"/>
<path d="M224 290.354C227.258 290.354 229.9 287.67 229.9 284.36C229.9 281.049 227.258 278.365 224 278.365C220.742 278.365 218.1 281.049 218.1 284.36C218.1 287.67 220.742 290.354 224 290.354Z" fill="#D2953D"/>
<path d="M222.7 286.696C224.578 286.696 226.1 285.15 226.1 283.242C226.1 281.334 224.578 279.788 222.7 279.788C220.822 279.788 219.3 281.334 219.3 283.242C219.3 285.15 220.822 286.696 222.7 286.696Z" fill="#EDC75E"/>
<path d="M228 301.327H111.1C103 301.327 96.4 294.622 96.4 286.392H242.7C242.7 294.622 236.1 301.327 228 301.327Z" fill="white"/>
<path d="M85.7118 164.102C76.8435 162.211 70.0513 159.431 61.9857 154.391C54.6278 149.75 53.7529 141.24 60.2089 135.513C60.2456 135.42 60.3753 135.364 60.3753 135.364C61.2077 134.618 62.2654 134.399 63.3256 134.724C75.3771 138.135 86.8214 142.818 97.8448 148.851C98.8316 149.364 99.4119 150.362 99.5467 151.396C99.51 151.489 99.5663 151.621 99.5663 151.621C100.591 160.3 94.1713 165.934 85.7118 164.102Z" fill="#EADFD1"/>
<path d="M99.7557 151.644C99.7924 151.55 99.7361 151.419 99.7361 151.419C99.6382 150.295 99.0217 149.392 98.0359 148.881C87.0235 142.862 75.5906 138.189 63.5512 134.787C63.2723 134.673 62.8639 134.614 62.5116 134.687C62.475 134.781 62.475 134.781 62.4383 134.874C62.2036 136.296 62.1181 137.888 62.2553 139.462C62.2969 140.455 62.8205 141.319 63.5837 141.848C75.0512 150.005 82.952 153.234 96.3023 155.22C97.2122 155.375 98.083 155.081 98.7849 154.392C99.1175 154.094 99.4868 153.703 99.8195 153.405C99.8536 152.768 99.7582 152.187 99.7557 151.644Z" fill="#D1C3B4"/>
<path d="M69.3453 128.53C65.8111 127.084 61.8294 129.256 61.3084 133.061C61.0736 134.486 60.9881 136.079 61.1253 137.656C61.167 138.65 61.6908 139.516 62.4545 140.046C73.9287 148.215 81.8341 151.449 95.1922 153.438C96.1027 153.593 96.9739 153.298 97.6762 152.608C99.6732 150.819 101.112 148.801 102.086 146.593C103.06 144.385 101.941 143.385 99.7579 140.971L69.3453 128.53Z" fill="#DB5955"/>
<path d="M99.7648 140.955C99.7648 140.955 94.9023 137.121 84.7689 133.519C80.976 132.185 69.4503 128.557 69.4503 128.557C64.3751 126.915 62.3247 129.116 61.4686 132.674C61.2534 134.323 61.6892 136.238 63.0302 137.22C75.2147 146.871 83.5908 147.8 98.3023 149.909C99.0266 149.989 100.509 149.509 101.026 148.744C101.412 148.033 101.799 147.323 102.185 146.613C103.066 144.368 101.852 142.786 99.7648 140.955Z" fill="#E18668"/>
<path d="M65.2896 142.026L64.1889 138.191C65.5674 133.843 71.3171 130.52 73.1419 129.739C72.2637 129.489 71.4224 129.144 70.8247 129.009C63.3806 133.057 62.821 136.976 62.7841 137.07L63.3239 140.675C63.9045 141.131 64.6155 141.532 65.2896 142.026Z" fill="#F7E4D8"/>
<path d="M99.754 140.881C99.754 140.881 99.6603 140.843 99.5099 140.672C94.2451 146.058 93.8296 149.057 93.7557 149.245L94.654 153.328C94.8413 153.404 94.9719 153.348 95.1592 153.425C95.5708 153.484 96.0193 153.449 96.3742 153.376L95.5326 149.426C96.3056 146.901 98.6854 144.159 100.844 141.982C100.486 141.508 100.185 141.167 99.754 140.881Z" fill="#F7E4D8"/>
<path d="M79.366 149.505L78.5453 145.783C80.0551 141.378 86.2285 136.151 87.9952 134.69C87.1533 134.346 86.3115 134.001 85.4328 133.751C76.917 141.076 76.2833 145.185 76.2464 145.279L76.7101 148.527C77.5519 148.871 78.4873 149.254 79.366 149.505Z" fill="#F7E4D8"/>
<path d="M70.6361 142.341C72.0535 138.447 78.2234 133.77 81.107 132.222C80.1357 131.934 79.071 131.607 78.0431 131.186C68.7633 136.881 68.3908 140.876 68.2236 141.026L68.6303 144.14C69.5845 144.749 70.4821 145.225 71.3428 145.796L70.6361 142.341Z" fill="#F7E4D8"/>
<path d="M87.1595 147.981C88.3746 144.327 92.7065 140.202 95.3106 137.991C94.599 137.591 93.8873 137.19 93.0452 136.846C85.3462 143.743 84.8796 147.703 84.8058 147.891L85.5702 151.481C86.3556 151.693 87.2346 151.943 88.1506 152.1L87.1595 147.981Z" fill="#F7E4D8"/>
<path d="M60.7745 160.958C51.9061 159.067 45.1139 156.287 37.0483 151.247C29.6904 146.606 28.8155 138.096 35.2715 132.369C35.3082 132.276 35.4379 132.22 35.4379 132.22C36.2703 131.474 37.328 131.255 38.3882 131.58C50.4397 134.99 61.8841 139.674 72.9074 145.707C73.8942 146.22 74.4745 147.218 74.6093 148.252C74.5726 148.345 74.6289 148.477 74.6289 148.477C75.6532 157.156 69.2339 162.789 60.7745 160.958Z" fill="#EADFD1"/>
<path d="M74.8183 148.5C74.855 148.406 74.7987 148.275 74.7987 148.275C74.7008 147.151 74.0843 146.248 73.0985 145.737C62.0862 139.718 50.6532 135.045 38.6138 131.643C38.335 131.529 37.9265 131.47 37.5743 131.543C37.5376 131.637 37.5376 131.637 37.5009 131.73C37.2662 133.152 37.1808 134.744 37.3179 136.318C37.3596 137.311 37.8831 138.175 38.6463 138.704C50.1138 146.861 58.0146 150.09 71.3649 152.076C72.2748 152.231 73.1456 151.937 73.8475 151.248C74.1801 150.95 74.5495 150.559 74.8821 150.261C74.8233 149.586 74.8208 149.043 74.8183 148.5Z" fill="#D1C3B4"/>
<path d="M44.4079 125.386C40.8737 123.94 36.892 126.112 36.371 129.917C36.1362 131.341 36.0507 132.935 36.1879 134.512C36.2296 135.506 36.7534 136.372 37.5171 136.902C48.9913 145.071 56.8967 148.305 70.2548 150.294C71.1653 150.449 72.0365 150.154 72.7389 149.464C74.7358 147.675 76.1747 145.657 77.1485 143.449C78.1224 141.241 77.0038 140.241 74.8205 137.827L44.4079 125.386Z" fill="#DB5955"/>
<path d="M74.8274 137.811C74.8274 137.811 69.9649 133.977 59.8316 130.375C56.0386 129.041 44.5129 125.413 44.5129 125.413C39.4377 123.771 37.3873 125.972 36.5312 129.53C36.316 131.179 36.7518 133.094 38.0928 134.076C50.2773 143.727 58.6534 144.656 73.365 146.765C74.0893 146.845 75.5721 146.365 76.0883 145.6C76.4749 144.889 76.8615 144.179 77.248 143.469C78.1287 141.224 76.9149 139.642 74.8274 137.811Z" fill="#E18668"/>
<path d="M40.3521 138.882L39.2514 135.047C40.6299 130.699 46.3796 127.376 48.2044 126.595C47.3262 126.345 46.4849 126 45.8872 125.865C38.4431 129.913 37.8835 133.832 37.8466 133.926L38.3864 137.531C38.967 137.987 39.678 138.388 40.3521 138.882Z" fill="#F7E4D8"/>
<path d="M74.8165 137.737C74.8165 137.737 74.7228 137.699 74.5724 137.528C69.3076 142.914 68.8921 145.913 68.8182 146.101L69.7165 150.184C69.9038 150.26 70.0344 150.204 70.2218 150.281C70.6333 150.34 71.0819 150.305 71.4367 150.232L70.5951 146.282C71.3681 143.757 73.7479 141.015 75.9061 138.838C75.5486 138.364 75.2478 138.023 74.8165 137.737Z" fill="#F7E4D8"/>
<path d="M54.4285 146.361L53.6078 142.639C55.1176 138.234 61.291 133.007 63.0577 131.546C62.2159 131.202 61.374 130.857 60.4953 130.607C51.9795 137.932 51.3458 142.041 51.3089 142.135L51.7726 145.383C52.6144 145.727 53.4563 146.072 54.4285 146.361Z" fill="#F7E4D8"/>
<path d="M45.6986 139.197C47.116 135.303 53.2859 130.626 56.1695 129.078C55.1982 128.79 54.1335 128.463 53.1056 128.042C43.8258 133.737 43.4533 137.732 43.2861 137.882L43.6928 140.996C44.647 141.605 45.5446 142.081 46.4053 142.652L45.6986 139.197Z" fill="#F7E4D8"/>
<path d="M62.2221 144.837C63.4372 141.183 67.769 137.058 70.3731 134.847C69.6615 134.447 68.9498 134.046 68.1077 133.702C60.4087 140.599 59.9421 144.559 59.8683 144.747L60.6327 148.337C61.4181 148.549 62.2971 148.799 63.2131 148.956L62.2221 144.837Z" fill="#F7E4D8"/>
<path d="M105.314 144.813L96.597 167.066C95.7143 169.319 101.224 173.755 108.867 176.886C116.511 180.016 123.454 180.79 124.374 178.443L133.091 156.191L105.314 144.813Z" fill="#332C5E"/>
<path d="M100.214 172.221C101.323 173.001 102.525 173.821 103.99 174.528L114.246 148.425L110.211 146.778L100.214 172.221Z" fill="#474C52"/>
<path d="M116.983 156.248C124.228 159.213 131.12 159.018 132.377 155.811C133.634 152.605 128.78 147.602 121.535 144.637C114.29 141.672 107.398 141.867 106.141 145.074C104.884 148.28 109.738 153.283 116.983 156.248Z" fill="#F2F8FB"/>
<path d="M118.562 152.22C121.438 153.396 124.082 153.554 124.467 152.572C124.852 151.591 122.832 149.841 119.956 148.665C117.08 147.488 114.436 147.33 114.051 148.312C113.666 149.294 115.686 151.043 118.562 152.22Z" fill="#DD7260"/>
<path d="M121.02 145.949C128.464 148.995 132.182 153.559 131.448 155.432C130.751 157.21 124.941 157.983 117.498 154.936C110.054 151.889 106.336 147.325 107.07 145.453C107.804 143.58 113.577 142.902 121.02 145.949ZM121.681 144.263C114.051 141.14 106.753 141.303 105.395 144.767C104.037 148.231 109.207 153.498 116.837 156.621C124.467 159.744 131.765 159.581 133.123 156.117C134.481 152.653 129.404 147.425 121.681 144.263Z" fill="#332C5E"/>
<path d="M124.559 181.368C116.758 184.723 106.656 178.518 106.656 178.518C106.656 178.518 109.164 166.89 116.965 163.535C124.766 160.18 134.868 166.384 134.868 166.384C134.868 166.384 132.36 178.013 124.559 181.368Z" fill="#579485"/>
<path d="M86.2054 144.917L77.4888 167.169C76.6061 169.423 82.1157 173.859 89.759 176.989C97.4024 180.12 104.346 180.894 105.266 178.547L113.982 156.294L86.2054 144.917Z" fill="#332C5E"/>
<path d="M113.362 155.953C112.114 159.136 105.225 159.36 97.9676 156.39C90.7107 153.42 85.8772 148.399 87.1253 145.215C88.3735 142.032 95.2628 141.808 102.52 144.778C109.777 147.748 114.61 152.769 113.362 155.953Z" fill="#F2F8FB"/>
<path d="M105.451 152.714C105.084 153.65 102.429 153.541 99.5464 152.361C96.6636 151.182 94.6689 149.389 95.0358 148.454C95.4395 147.425 98.0579 147.627 100.941 148.806C103.731 149.948 105.818 151.779 105.451 152.714Z" fill="#DD7260"/>
<path d="M101.875 146.147C109.319 149.194 113.037 153.758 112.303 155.63C111.569 157.502 105.796 158.181 98.3522 155.134C90.9085 152.087 87.1906 147.523 87.9245 145.651C88.6584 143.779 94.4312 143.1 101.875 146.147ZM102.535 144.462C94.9056 141.338 87.6074 141.502 86.2497 144.966C84.8919 148.429 90.0619 153.696 97.6917 156.819C105.321 159.943 112.62 159.779 113.977 156.315C115.335 152.852 110.258 147.623 102.535 144.462Z" fill="#332C5E"/>
<path d="M109.471 191.512L33.6759 160.594C25.5948 157.297 21.6114 147.967 24.8113 139.832L130.051 182.761C126.722 190.953 117.552 194.808 109.471 191.512Z" fill="white"/>
<path d="M290.62 138.902C290.62 138.902 291.354 131.853 287.248 130.862C283.238 129.939 277.534 129.142 279.345 127.629C281.156 126.117 279.94 124.449 279.94 124.449L283.615 125.943C283.615 125.943 277.775 120.641 278.416 119.846C279.058 119.05 280.016 119.139 280.016 119.139C280.016 119.139 279.246 117.052 279.291 116.275C279.335 115.499 282.759 117.036 282.759 117.036L282.722 115.761L285.194 119.345L286.127 118.755C286.127 118.755 290.042 122.77 289.815 127.679C289.815 127.679 292.455 123.373 286.648 116.699C286.648 116.699 284.165 112.519 285.196 111.484L286.708 111.818L286.235 108.398C286.235 108.398 287.468 109.122 288.655 111.136C289.842 113.15 291.3 113.152 291.3 113.152C291.3 113.152 286.481 105.706 286.642 103.542L288.418 103.915C288.418 103.915 287.15 101.403 287.683 99.9428L289.566 101.493C289.566 101.493 289.853 99.0511 290.632 98.5732L292.278 100.251C292.278 100.251 292.809 95.6296 293.661 94.5411C293.661 94.5411 295.733 97.2547 295.353 98.6026L296.982 97.5491L297.527 100.359L300.049 97.953C300.049 97.953 300.396 101.652 299.419 103.018L301.507 101.628C301.507 101.628 300.362 110.885 296.645 113.328C296.645 113.328 298.78 114.322 301.928 107.877C301.928 107.877 303.973 106.751 303.184 109.794C302.479 112.822 304.263 111.143 304.263 111.143C304.263 111.143 303.751 117.982 299.489 121.29C295.228 124.597 295.284 128.091 295.284 128.091C295.284 128.091 298.268 124.835 299.844 122.936C301.42 121.038 302.737 118.074 302.737 118.074L303.858 119.159L306.397 115.811C306.397 115.811 307.454 115.455 307.043 117.663C307.043 117.663 309.986 117.832 309.441 118.696C308.897 119.561 306.599 121.244 306.599 121.244L308.511 122.447C308.511 122.447 306.524 126.554 302.729 127.473L305.961 128.361L304.984 129.728C304.984 129.728 306.685 131.737 305.322 132.317C303.875 132.912 298.01 130.605 296.044 132.742C294.148 134.782 291.242 139.562 291.242 139.562L290.62 138.902Z" fill="#497C74"/>
<path d="M285.021 151.818C285.021 151.818 280.485 148.686 278.173 151.308C275.944 153.917 273.156 157.818 272.678 155.938C272.283 154.045 270.535 154.35 270.535 154.35L273.011 152.211C273.011 152.211 266.803 154.576 266.501 153.775C266.199 152.974 266.604 152.306 266.604 152.306C266.604 152.306 264.774 152.114 264.207 151.786C263.64 151.459 266.143 149.485 266.143 149.485L265.216 149.05L268.823 148.59L268.757 147.663C268.757 147.663 273.324 146.267 276.812 148.218C276.812 148.218 274.606 144.678 267.444 146.442C267.444 146.442 263.38 146.725 263.01 145.51L263.874 144.506L261.146 143.532C261.146 143.532 262.16 142.928 264.102 142.759C266.044 142.59 266.644 141.547 266.644 141.547C266.644 141.547 259.236 142.329 257.714 141.4L258.717 140.201C258.717 140.201 256.318 140.194 255.49 139.314L257.337 138.565C257.337 138.565 255.608 137.416 255.583 136.738L257.457 136.155C257.457 136.155 254.206 134.077 253.78 133.042C253.78 133.042 256.527 132.562 257.412 133.261L257.321 131.655L259.648 132.273L258.771 129.524C258.771 129.524 261.693 130.635 262.313 131.807L262.057 129.718C262.057 129.718 268.406 133.985 268.836 137.665C268.836 137.665 270.352 136.461 266.847 131.783C266.847 131.783 266.799 129.914 268.776 131.531C270.669 133.163 270.178 131.201 270.178 131.201C270.178 131.201 275.02 134.109 275.822 138.492C276.624 142.875 279.226 144.127 279.226 144.127C279.226 144.127 277.977 140.675 277.166 138.854C276.438 137.019 274.726 134.929 274.726 134.929L275.934 134.461L274.393 131.317C274.393 131.317 274.507 130.444 276.056 131.539C276.056 131.539 277.34 129.437 277.795 130.125C278.25 130.814 278.546 133.152 278.546 133.152L280.186 132.182C280.186 132.182 282.476 135.195 281.619 138.332L283.596 136.28L284.229 137.535C284.229 137.535 286.366 136.99 286.32 138.279C286.274 139.567 282.225 143.09 283.007 145.258C283.79 147.425 285.608 150.692 285.608 150.692L285.021 151.818Z" fill="#497C74"/>
<path d="M290.578 156.024C290.578 156.024 294.946 152.36 293.112 149.523C291.279 146.687 288.353 142.932 290.253 143.026C292.152 143.121 292.38 141.375 292.38 141.375L293.728 144.382C293.728 144.382 293.253 137.809 294.099 137.747C294.945 137.684 295.456 138.192 295.456 138.192C295.456 138.192 296.198 136.441 296.643 136.022C297.088 135.603 298.242 138.473 298.242 138.473L298.966 137.664L298.357 141.269L299.243 141.455C299.243 141.455 299.24 146.149 296.359 148.956C296.359 148.956 300.37 147.828 300.786 140.418C300.786 140.418 301.675 136.423 302.964 136.453L303.653 137.527L305.326 135.187C305.326 135.187 305.599 136.334 305.134 138.207C304.67 140.08 305.498 140.959 305.498 140.959C305.498 140.959 306.871 133.637 308.22 132.463L309.033 133.771C309.033 133.771 309.693 131.523 310.874 130.89L311.116 132.895C311.116 132.895 312.688 131.511 313.409 131.727L313.471 133.678C313.471 133.678 316.392 131.12 317.571 130.999C317.571 130.999 317.255 133.785 316.255 134.472L317.848 134.791L316.551 136.809L319.449 136.729C319.449 136.729 317.54 139.196 316.222 139.512L318.245 139.841C318.245 139.841 312.292 144.806 308.675 144.158C308.675 144.158 309.403 145.994 314.958 143.828C314.958 143.828 316.828 144.27 314.66 145.672C312.491 147.075 314.557 147.141 314.557 147.141C314.557 147.141 310.313 151.04 305.865 150.537C301.429 150.118 299.48 152.336 299.48 152.336C299.48 152.336 303.114 152.042 305.125 151.776C307.137 151.509 309.622 150.478 309.622 150.478L309.742 151.737L313.156 151.14C313.156 151.14 313.986 151.507 312.457 152.628C312.457 152.628 314.127 154.469 313.295 154.614C312.476 154.843 310.203 154.557 310.203 154.557L310.681 156.436C310.681 156.436 307.141 157.823 304.388 156.171L305.807 158.568L304.488 158.884C304.488 158.884 304.425 161.113 303.151 160.653C301.974 160.262 299.732 155.449 297.36 155.607C294.988 155.766 291.463 156.723 291.463 156.723L290.578 156.024Z" fill="#497C74"/>
<path d="M313.829 139.746C313.259 139.931 312.619 140.214 311.966 140.413C311.077 140.739 310.09 140.997 309.187 141.24C310.999 139.216 312.811 137.191 314.526 135.098C312.923 136.83 311.237 138.576 309.538 140.24C309.72 139.781 309.819 139.336 309.988 138.795C310.228 137.642 310.385 136.505 310.375 135.396C310.218 136.534 310.061 137.671 309.641 138.77C309.303 139.854 308.8 140.967 308.061 141.693L307.782 142.084C307.699 142.098 307.713 142.181 307.629 142.196C305.846 143.874 304.064 145.552 302.267 147.147C302.323 146.967 302.38 146.786 302.436 146.605C302.661 145.883 302.802 145.175 302.86 144.481C303.06 143.08 303.162 141.61 303.265 140.14C303.079 141.625 302.879 143.026 302.597 144.442C302.455 145.15 302.23 145.873 301.992 146.512C301.74 147.069 301.502 147.708 301.139 148.113C300.916 148.323 300.694 148.533 300.387 148.757C298.508 150.367 296.518 151.825 294.514 153.2C294.696 152.741 294.781 152.214 294.963 151.755C295.217 150.685 295.401 149.714 295.572 148.659C295.829 146.564 296.087 144.469 296.178 142.404C296.004 144.484 295.663 146.593 295.308 148.62C295.138 149.674 294.87 150.661 294.603 151.647C294.378 152.369 294.153 153.092 293.832 153.746C293.442 153.985 293.066 154.307 292.677 154.546C291.272 155.389 289.95 156.218 288.545 157.061L286.278 158.397C286.671 157.133 287.078 155.951 287.471 154.687C289.27 148.906 290.791 143.003 292.145 137.13C292.287 136.422 292.442 135.797 292.666 135.074C294.742 133.089 296.734 131.118 298.796 129.049C299.827 128.015 300.844 126.898 301.875 125.864C302.892 124.746 303.826 123.644 304.65 122.389C303.813 123.561 302.712 124.692 301.681 125.727C300.65 126.761 299.536 127.81 298.505 128.844C296.639 130.537 294.773 132.229 292.907 133.922C293.275 131.979 293.573 130.133 293.858 128.204C294.03 126.637 294.203 125.069 294.375 123.502C295.866 122.131 297.162 120.623 298.361 119.047C299.631 117.373 300.79 115.548 301.491 113.546C300.693 115.48 299.437 117.236 298.071 118.842C296.914 120.154 295.743 121.384 294.393 122.559C294.466 121.436 294.54 120.313 294.614 119.19C294.761 116.943 294.811 114.628 294.875 112.397L295.014 112.201C295.728 110.796 296.357 109.404 297.07 107.999C297.379 107.262 297.7 106.608 298.008 105.87C298.316 105.133 298.541 104.411 298.766 103.688C298.541 104.411 298.233 105.148 297.828 105.816C297.506 106.471 297.115 107.222 296.71 107.891C296.109 108.935 295.509 109.98 294.908 111.024C294.908 111.024 294.908 111.024 294.894 110.941C294.854 110.692 294.896 110.428 294.856 110.179C294.881 107.186 294.725 104.138 294.487 101.105C294.532 104.001 294.493 106.912 294.454 109.822C294.179 109.187 293.918 108.635 293.559 108.015C292.855 106.856 291.985 105.727 291.045 104.696C291.902 105.742 292.619 106.983 293.239 108.156C293.514 108.791 293.79 109.426 293.968 109.993C294.16 110.643 294.268 111.307 294.197 111.917L294.247 113.275C294.142 115.258 294.024 117.157 293.92 119.14C293.805 120.014 293.774 120.874 293.66 121.748C293.523 121.43 293.399 121.196 293.261 120.878C292.875 120.091 292.323 119.334 291.868 118.645C290.86 117.198 289.782 115.849 288.635 114.597C289.712 115.946 290.72 117.393 291.561 118.869C292.03 119.641 292.402 120.345 292.788 121.131C293.09 121.933 293.393 122.734 293.348 123.51L293.401 124.355C293.271 125.659 293.044 126.894 292.914 128.198C292.602 129.961 292.29 131.724 291.978 133.486C291.703 132.851 291.345 132.231 290.986 131.61C290.38 130.52 289.606 129.46 288.93 128.468C287.48 126.415 285.878 124.474 284.275 122.534C285.794 124.489 287.327 126.527 288.61 128.609C289.3 129.684 289.907 130.774 290.513 131.863C291.009 132.802 291.436 133.837 291.696 134.902C291.554 135.61 291.343 136.416 291.118 137.138C289.822 142.319 288.332 147.362 286.758 152.42C286.274 152.077 285.873 151.721 285.458 151.281C284.656 150.567 283.867 149.936 283.078 149.305C282.462 147.107 281.749 144.84 281.049 142.656C280.692 141.523 280.239 140.321 279.882 139.187C279.442 138.069 278.989 136.867 278.396 135.86C278.919 136.964 279.359 138.083 279.729 139.3C280.086 140.433 280.456 141.649 280.729 142.797C281.305 144.747 281.811 146.793 282.303 148.757C281.32 147.989 280.254 147.236 279.202 146.566C277.846 145.607 276.503 144.732 275.076 143.871C274.652 142.322 274.047 140.72 273.303 139.312C272.532 137.739 271.607 136.278 270.446 134.943C271.524 136.292 272.379 137.851 273.067 139.439C273.617 140.709 274.014 142.092 274.412 143.474C273.83 143.064 273.179 142.75 272.598 142.339C270.797 141.288 268.914 140.25 266.96 139.31L266.947 139.227C266.173 138.167 265.414 137.189 264.64 136.129C264.212 135.606 263.797 135.166 263.369 134.643C262.954 134.203 262.526 133.68 262.028 133.254C262.526 133.68 262.871 134.217 263.299 134.74C263.644 135.278 264.073 135.801 264.418 136.338C264.97 137.096 265.452 137.951 265.921 138.723C265.838 138.738 265.825 138.655 265.741 138.669C263.414 137.539 261.003 136.423 258.619 135.473C260.683 136.564 262.83 137.641 264.894 138.732C264.381 138.736 263.951 138.726 263.437 138.73C262.257 138.851 261.174 139.041 260.021 139.328C261.187 139.124 262.284 139.017 263.394 138.994C264.505 138.971 265.642 139.114 266.584 139.632L266.945 139.74C268.731 140.709 270.532 141.761 272.332 142.813C272.72 143.087 273.107 143.361 273.481 143.552C273.218 143.512 273.051 143.541 272.801 143.585C272.038 143.633 271.357 143.667 270.607 143.798C269.191 144.045 267.691 144.307 266.301 144.721C267.718 144.473 269.135 144.226 270.578 144.144C271.342 144.096 272.022 144.063 272.716 144.112C273.41 144.162 274.187 144.197 274.671 144.539L274.948 144.662C276.195 145.469 277.441 146.276 278.617 147.181C279.503 147.88 280.388 148.579 281.274 149.279C280.747 149.2 280.163 149.302 279.567 149.321C278.553 149.413 277.456 149.519 276.456 149.694C274.373 150.058 272.29 150.422 270.234 150.952C272.303 150.505 274.4 150.224 276.497 149.943C277.511 149.851 278.607 149.745 279.634 149.736C280.495 149.756 281.355 149.777 282.16 149.978C282.962 150.692 283.848 151.391 284.566 152.12C285.105 152.794 285.644 153.469 286.113 154.241C286.043 154.338 286.07 154.504 286.001 154.602C285.018 157.507 284.022 160.329 282.929 163.082C281.836 165.835 280.577 168.618 279.304 171.317L280.98 172.134C282.24 169.352 283.402 166.501 284.482 163.665C284.776 162.845 285.071 162.024 285.295 161.302C287.912 159.478 290.625 157.723 293.338 155.968C293.644 155.743 293.95 155.519 294.173 155.309C296.394 155.263 298.698 155.202 300.919 155.155C302.112 155.117 303.389 155.065 304.57 154.944C305.75 154.823 307.027 154.771 308.263 154.469C307.013 154.688 305.82 154.726 304.639 154.847C303.446 154.884 302.169 154.937 300.961 154.892C298.99 154.894 296.923 154.829 294.952 154.831C297.095 153.261 299.058 151.637 300.994 149.847C301.217 149.637 301.44 149.427 301.663 149.217C303.287 149.19 304.883 148.996 306.467 148.719C308.217 148.414 309.939 147.942 311.441 147.167C309.842 147.873 308.106 148.262 306.426 148.47C305.079 148.62 303.635 148.702 302.261 148.686C304.281 146.881 306.189 144.924 308.015 142.983C308.085 142.885 308.238 142.773 308.308 142.675L308.391 142.661C309.6 142.193 310.809 141.726 312.019 141.258C312.575 140.99 313.214 140.708 313.77 140.44C314.327 140.171 314.966 139.889 315.509 139.538C315.038 139.279 314.468 139.464 313.829 139.746Z" fill="#579485"/>
<path d="M247.318 148.656C247.097 148.354 246.82 148.232 246.529 148.027C245.781 147.646 245.382 146.777 245.414 145.918C245.4 145.835 245.47 145.737 245.443 145.571C245.558 142.052 243.599 138.982 241.155 138.728C240.891 138.689 240.544 138.665 240.294 138.709C239.793 138.797 239.169 138.65 238.754 138.211C237.109 136.537 235.028 135.878 233.259 136.615C231.491 137.352 230.51 139.232 230.47 141.628C230.482 142.224 230.145 142.795 229.685 143.132C229.462 143.342 229.239 143.551 229.015 143.761C227.45 145.743 228.113 149.297 230.658 151.752C230.755 151.82 230.852 151.889 230.865 151.972C231.474 152.548 231.789 153.431 231.494 154.251C231.367 154.529 231.338 154.876 231.308 155.222C231.341 157.009 233.127 158.488 235.113 158.566C235.975 158.585 236.712 158.371 237.339 158.004C237.966 157.638 238.744 157.672 239.339 158.165C240.626 159.22 242.209 159.454 242.209 159.454C242.209 159.454 243.132 158.268 243.349 156.437C243.478 155.646 243.981 155.046 244.732 154.914C245.483 154.782 246.193 154.402 246.78 153.786C248.329 152.234 248.479 149.989 247.318 148.656Z" fill="#95BD59"/>
<path d="M240.766 153.079C239.812 150.935 239.839 151.101 239.604 150.714L240.729 148.123C240.911 147.663 240.271 147.432 240.088 147.892L239.217 149.926C238.166 147.714 237.557 146.622 236.352 144.522C236.985 146.808 237.273 148.041 238.003 150.395C236.444 149.811 235.736 149.164 235.483 149.722C235.23 150.279 236.178 150.285 238.236 151.295C238.402 151.78 238.374 151.613 239.077 153.801L237.324 153.08C236.865 152.903 236.625 153.544 237.084 153.72L239.394 154.687C240.801 158.548 241.132 159.517 243.043 162.777L244.006 162.353C243.716 161.633 244.123 160.964 240.999 153.979C241.717 152.057 242.388 151.427 241.832 151.181C241.735 151.113 241.342 151.866 240.766 153.079Z" fill="#B2C762"/>
<path d="M214.927 152.908C214.511 152.981 214.191 153.122 213.871 153.263C213.092 153.741 211.955 153.6 211.264 153.039C211.167 152.971 211.071 152.903 210.974 152.835C207.794 150.666 203.674 150.623 201.804 152.826C201.595 153.118 201.385 153.411 201.259 153.688C201.007 154.244 200.477 154.678 199.894 154.78C197.325 155.316 195.348 156.857 194.922 158.977C194.482 161.014 195.679 163.105 197.891 164.591C198.472 165 198.733 165.551 198.757 166.228C198.728 166.575 198.865 166.891 198.919 167.223C199.78 169.884 203.616 171.341 207.407 170.419C207.491 170.405 207.657 170.375 207.741 170.361C208.643 170.117 209.71 170.356 210.262 171.111C210.482 171.413 210.773 171.618 211.063 171.823C212.764 172.802 215.21 172.032 216.536 170.18C217.095 169.4 217.39 168.581 217.352 167.821C217.384 166.963 217.956 166.266 218.776 166.037C220.568 165.467 221.796 164.058 221.796 164.058C221.796 164.058 221.193 162.46 219.701 161.188C219.01 160.627 218.792 159.813 219.087 158.995C219.396 158.259 219.498 157.303 219.266 156.407C218.889 154.087 216.926 152.557 214.927 152.908Z" fill="#95BD59"/>
<path d="M214.963 161.713C212.431 161.389 212.597 161.36 211.988 161.297C210.459 159.266 210.297 158.274 209.672 158.638C209.131 158.987 210.001 159.601 210.95 161.222C207.463 160.81 205.913 160.74 204.196 160.699C205.731 161.197 207.266 161.695 210.668 162.633C209.224 163.736 208.157 164.007 208.501 164.543C208.845 165.078 209.389 164.218 211.65 162.887C212.19 163.048 212.01 162.994 214.5 163.581C213.291 164.557 212.294 164.732 212.638 165.267C212.982 165.803 213.608 164.928 215.551 163.738C222.911 165.346 222.414 164.922 225.362 165.174L225.601 164.026C224.979 163.879 224.165 163.085 215.918 161.802C214.513 160.005 214.351 159.013 213.809 159.362C213.378 159.863 214.235 160.394 214.963 161.713Z" fill="#B2C762"/>
<path d="M231.6 152.081C235.618 156.755 234.619 164.269 229.291 168.87C223.962 173.471 216.335 173.439 212.317 168.765C208.299 164.09 209.298 156.576 214.627 151.975C219.955 147.374 227.582 147.407 231.6 152.081Z" fill="#EADFD1"/>
<path d="M227.765 167.189C231.397 164.022 232.824 159.694 230.951 157.522C229.079 155.35 224.616 156.157 220.984 159.324C217.351 162.492 215.925 166.82 217.797 168.991C219.67 171.163 224.133 170.356 227.765 167.189Z" fill="#D1C3B4"/>
<path d="M232.838 166.428C235.381 169.4 234.803 171.636 233.09 173.217C231.28 174.729 229.016 175.039 226.473 172.067C223.93 169.095 221.978 163.969 223.789 162.457C225.405 160.808 230.198 163.387 232.838 166.428Z" fill="#E7E2D5"/>
<path d="M292.864 149.055C292.217 155.056 286.169 159.44 279.377 158.75C272.586 158.06 267.587 152.619 268.316 146.604C268.963 140.603 275.011 136.218 281.803 136.909C288.594 137.599 293.593 143.04 292.864 149.055Z" fill="#EADFD1"/>
<path d="M288.672 152.187C288.357 154.969 284.305 156.87 279.693 156.398C274.998 155.94 271.488 153.314 271.79 150.449C272.105 147.666 276.158 145.765 280.77 146.238C285.479 146.779 288.988 149.405 288.672 152.187Z" fill="#D1C3B4"/>
<path d="M283.57 159.506C283.167 163.337 281.121 164.463 278.857 164.261C276.594 164.058 274.891 162.561 275.294 158.73C275.697 154.9 278.174 150.108 280.438 150.311C282.701 150.514 283.974 155.675 283.57 159.506Z" fill="#E7E2D5"/>
<path d="M303.398 150.861C304.746 150.199 305.472 148.878 305.324 147.453C305.311 147.37 305.284 147.204 305.27 147.121C305.073 144.339 303.917 141.981 301.731 140.656C297.442 137.993 290.776 140.694 286.967 146.735C283.494 152.207 283.498 158.521 286.745 161.623C287.353 162.199 288.283 162.122 288.867 161.508C293.529 157.024 298.314 153.286 303.398 150.861Z" fill="#DB5955"/>
<path d="M292.945 153.462C295.14 150.094 298.41 148.071 301.337 148.153C301.85 148.148 302.24 147.909 302.519 147.519C302.798 147.129 302.717 146.632 302.47 146.164C302.029 145.56 301.505 144.97 300.84 144.576C297.604 142.587 292.71 144.64 289.844 149.149C287.733 152.502 287.313 156.241 288.577 158.746C288.825 159.214 289.392 159.54 289.975 159.438C290.558 159.336 291.004 158.916 291.077 158.307C291.334 156.728 291.924 155.09 292.945 153.462Z" fill="#BC1B2C"/>
<path d="M299.768 146.12C299.725 146.384 299.446 146.775 299.237 147.068C299.167 147.165 299.084 147.18 299 147.195C298.917 147.209 298.903 147.126 298.806 147.058C298.752 146.725 298.67 146.227 298.713 145.963C298.826 145.601 299.118 145.294 299.382 145.333C299.729 145.358 299.881 145.759 299.768 146.12Z" fill="#E7C644"/>
<path d="M296.714 146.731C296.838 146.966 296.849 147.562 296.834 147.992C296.848 148.075 296.778 148.173 296.694 148.188C296.611 148.202 296.527 148.217 296.43 148.148C296.126 147.86 295.71 147.419 295.586 147.185C295.435 146.784 295.52 146.256 295.84 146.114C296.091 146.071 296.479 146.345 296.714 146.731Z" fill="#E7C644"/>
<path d="M294.086 148.383C294.293 148.603 294.472 149.17 294.54 149.585C294.553 149.668 294.567 149.751 294.497 149.849C294.427 149.946 294.344 149.961 294.247 149.893C293.873 149.702 293.318 149.457 293.111 149.237C292.793 148.865 292.795 148.352 293.018 148.142C293.324 147.918 293.768 148.011 294.086 148.383Z" fill="#E7C644"/>
<path d="M291.859 150.395C292.052 150.531 292.48 151.054 292.715 151.44C292.728 151.523 292.742 151.606 292.672 151.703C292.602 151.801 292.519 151.816 292.436 151.83C291.992 151.737 291.382 151.673 291.175 151.453C290.788 151.179 290.637 150.779 290.846 150.486C290.958 150.125 291.471 150.121 291.859 150.395Z" fill="#E7C644"/>
<path d="M290.296 153.319C290.476 153.373 290.876 153.729 291.083 153.949C291.18 154.017 291.194 154.1 291.124 154.198C291.137 154.281 291.054 154.295 290.971 154.31C290.638 154.368 290.125 154.372 289.932 154.235C289.572 154.128 289.338 153.742 289.477 153.547C289.603 153.27 289.922 153.128 290.296 153.319Z" fill="#E7C644"/>
<path d="M289.494 156.199C289.673 156.252 289.95 156.374 290.143 156.511C290.143 156.511 290.24 156.579 290.17 156.677C290.184 156.759 290.101 156.774 290.101 156.774C289.851 156.818 289.532 156.959 289.352 156.905C289.089 156.865 288.882 156.646 288.938 156.466C288.995 156.286 289.23 156.159 289.494 156.199Z" fill="#E7C644"/>
<path d="M255.763 147.496C254.234 144.948 251.356 143.574 248.058 143.297C247.795 143.258 247.448 143.233 247.185 143.194C245.772 142.929 244.425 143.591 243.865 144.883C241.489 150.246 236.906 156.251 230.602 162.726C229.794 163.55 229.831 164.823 230.646 165.619C234.5 169.296 241.931 169.192 248.378 165.165C255.673 160.563 258.919 152.66 255.763 147.496Z" fill="#DB5955"/>
<path d="M240.666 158.32C244.783 155.723 247.146 151.816 247.093 148.332C247.082 147.738 247.418 147.168 247.891 146.915C248.363 146.661 249.043 146.627 249.527 146.968C250.287 147.431 250.908 148.089 251.376 148.858C253.798 152.692 251.329 158.577 245.891 162.002C241.843 164.502 237.375 164.945 234.304 163.44C233.653 163.128 233.379 162.495 233.438 161.803C233.58 161.097 234.096 160.58 234.775 160.546C236.704 160.293 238.719 159.513 240.666 158.32Z" fill="#BC1B2C"/>
<path d="M249.468 150.049C249.218 150.093 248.677 150.443 248.288 150.681C248.205 150.695 248.149 150.875 248.163 150.958C248.176 151.041 248.273 151.109 248.369 151.178C248.812 151.271 249.338 151.349 249.671 151.291C250.17 151.204 250.448 150.815 250.394 150.483C250.423 150.138 249.967 149.962 249.468 150.049Z" fill="#E7C644"/>
<path d="M248.737 153.856C248.46 153.733 247.684 153.699 247.171 153.703C247.088 153.717 246.921 153.746 246.948 153.912C246.975 154.078 246.906 154.176 247.002 154.244C247.32 154.615 247.831 155.123 248.191 155.23C248.744 155.475 249.23 155.305 249.426 154.929C249.538 154.569 249.29 154.1 248.737 153.856Z" fill="#E7C644"/>
<path d="M246.787 157.016C246.497 156.811 245.859 156.58 245.319 156.419C245.222 156.35 245.069 156.462 244.986 156.477C244.902 156.491 244.93 156.658 244.957 156.824C245.205 157.292 245.48 157.927 245.77 158.133C246.171 158.49 246.782 158.554 247.074 158.247C247.367 157.939 247.188 157.373 246.787 157.016Z" fill="#E7C644"/>
<path d="M244.326 159.665C244.105 159.362 243.523 158.951 243.135 158.677C243.038 158.608 242.955 158.623 242.788 158.652C242.718 158.75 242.648 158.847 242.662 158.93C242.743 159.429 242.866 160.177 243.087 160.48C243.418 160.935 243.973 161.18 244.28 160.955C244.669 160.716 244.658 160.12 244.326 159.665Z" fill="#E7C644"/>
<path d="M240.868 161.458C240.744 161.223 240.412 160.768 240.108 160.48C240.011 160.411 239.927 160.426 239.844 160.44C239.76 160.455 239.69 160.552 239.704 160.636C239.688 161.066 239.617 161.677 239.741 161.911C239.892 162.312 240.28 162.587 240.614 162.528C240.934 162.387 241.033 161.942 240.868 161.458Z" fill="#E7C644"/>
<path d="M237.451 162.474C237.424 162.307 237.189 161.921 237.065 161.686C237.051 161.603 236.968 161.618 236.885 161.632C236.801 161.647 236.801 161.647 236.731 161.744C236.689 162.008 236.59 162.453 236.617 162.619C236.671 162.952 236.879 163.172 237.129 163.128C237.366 163.001 237.492 162.723 237.451 162.474Z" fill="#E7C644"/>
<path d="M273.858 155.938C273.85 149.199 268.36 143.809 261.596 143.9C254.832 143.99 249.355 149.527 249.363 156.265C249.372 163.004 254.862 168.394 261.626 168.303C268.39 168.213 273.867 162.677 273.858 155.938Z" fill="#6EAC69"/>
<path d="M272.575 156.71C272.994 150.583 268.428 145.333 262.377 144.983C256.326 144.634 251.081 149.318 250.662 155.446C250.243 161.573 254.809 166.823 260.86 167.172C266.911 167.521 272.156 162.837 272.575 156.71Z" fill="#E7FFA8"/>
<path d="M266.648 155.22C267.095 157.958 265.213 160.592 262.465 161.072C259.717 161.552 257.102 159.705 256.655 156.966C256.207 154.227 258.09 151.594 260.838 151.114C263.586 150.633 266.2 152.481 266.648 155.22Z" fill="#B4D16F"/>
<path d="M261.468 159.124C261.413 158.792 261.568 158.166 261.667 157.721C261.654 157.638 261.807 157.526 261.891 157.511C261.974 157.497 262.071 157.565 262.168 157.634C262.403 158.02 262.748 158.558 262.803 158.891C262.884 159.389 262.618 159.863 262.285 159.922C261.867 159.995 261.563 159.706 261.468 159.124Z" fill="#E7FFA8"/>
<path d="M260.513 153.378C260.568 153.711 260.913 154.249 261.148 154.635C261.162 154.718 261.342 154.772 261.426 154.758C261.509 154.743 261.579 154.645 261.649 154.548C261.748 154.103 261.903 153.477 261.849 153.145C261.767 152.646 261.366 152.289 261.032 152.347C260.614 152.42 260.432 152.879 260.513 153.378Z" fill="#E7FFA8"/>
<path d="M263.654 158.403C263.364 158.197 263.019 157.66 262.784 157.274C262.771 157.191 262.757 157.108 262.827 157.011C262.897 156.913 262.98 156.899 263.063 156.884C263.507 156.977 264.13 157.124 264.421 157.33C264.808 157.604 264.973 158.087 264.764 158.379C264.555 158.672 264.041 158.676 263.654 158.403Z" fill="#E7FFA8"/>
<path d="M258.909 155.022C259.2 155.227 259.823 155.374 260.267 155.467C260.35 155.453 260.433 155.438 260.503 155.341C260.573 155.243 260.559 155.16 260.546 155.077C260.311 154.691 259.967 154.154 259.676 153.949C259.289 153.675 258.776 153.68 258.567 153.972C258.261 154.196 258.425 154.68 258.909 155.022Z" fill="#E7FFA8"/>
<path d="M264.678 156.339C264.346 156.397 263.723 156.25 263.28 156.157C263.197 156.172 263.087 156.021 263.073 155.938C263.06 155.855 263.129 155.758 263.199 155.66C263.588 155.422 264.129 155.072 264.462 155.014C264.961 154.927 265.43 155.185 265.485 155.517C265.539 155.848 265.177 156.252 264.678 156.339Z" fill="#E7FFA8"/>
<path d="M258.868 157.338C259.201 157.28 259.743 156.93 260.131 156.692C260.214 156.677 260.27 156.497 260.257 156.414C260.243 156.331 260.147 156.263 260.05 156.195C259.607 156.102 258.984 155.955 258.652 156.013C258.153 156.1 257.791 156.504 257.845 156.835C257.9 157.166 258.37 157.425 258.868 157.338Z" fill="#E7FFA8"/>
<path d="M263.892 154.163C263.683 154.455 263.141 154.806 262.752 155.045C262.669 155.06 262.585 155.074 262.488 155.006C262.392 154.937 262.378 154.854 262.364 154.771C262.463 154.327 262.618 153.703 262.827 153.41C263.106 153.02 263.592 152.85 263.883 153.055C264.16 153.177 264.241 153.675 263.892 154.163Z" fill="#E7FFA8"/>
<path d="M260.503 158.942C260.712 158.65 260.867 158.025 260.966 157.581C260.952 157.498 260.938 157.415 260.842 157.347C260.745 157.278 260.662 157.293 260.578 157.307C260.189 157.546 259.647 157.897 259.438 158.19C259.159 158.58 259.157 159.092 259.447 159.297C259.738 159.503 260.224 159.332 260.503 158.942Z" fill="#E7FFA8"/>
<path d="M239.632 210.355L282.16 202.982C284.402 202.593 286.536 201.541 288.241 199.966C300.402 188.73 306.942 171.9 304.336 154.522L203.166 172.061C206.354 189.338 217.921 203.029 232.922 209.556C235.037 210.469 237.389 210.744 239.632 210.355Z" fill="white"/>
<path d="M304.763 164.85C304.793 164 304.822 163.149 304.838 162.216L205.091 179.374C205.393 180.167 205.709 181.043 206.012 181.837L304.763 164.85Z" fill="#ABE0E3"/>
<path d="M300.314 183.205C302.009 179.516 303.248 175.652 303.962 171.708L209.007 188.103C211.046 191.656 213.446 194.807 216.15 197.736L300.314 183.205Z" fill="#ABE0E3"/>
<path d="M171.754 188.904C171.115 188.254 170.293 187.883 169.38 187.883C168.466 187.883 167.553 188.254 167.005 188.904C166.457 189.553 166 190.481 166 191.317C166 192.245 166.365 193.173 167.005 193.729C167.644 194.379 168.466 194.75 169.38 194.75C170.293 194.75 171.206 194.379 171.754 193.729C172.394 193.173 172.759 192.152 172.759 191.317C172.668 190.481 172.394 189.553 171.754 188.904Z" fill="#FFF1CE"/>
<path d="M180.754 123.879C180.115 123.23 179.293 122.858 178.38 122.858C177.466 122.858 176.553 123.23 176.005 123.879C175.457 124.529 175 125.457 175 126.292C175 127.22 175.365 128.148 176.005 128.705C176.644 129.355 177.466 129.726 178.38 129.726C179.293 129.726 180.206 129.355 180.754 128.705C181.394 128.148 181.759 127.127 181.759 126.292C181.668 125.457 181.394 124.529 180.754 123.879Z" fill="#FFF1CE"/>
<path d="M248.754 106.607C248.115 105.958 247.293 105.586 246.38 105.586C245.466 105.586 244.553 105.958 244.005 106.607C243.457 107.257 243 108.185 243 109.02C243 109.948 243.365 110.876 244.005 111.433C244.644 112.083 245.466 112.454 246.38 112.454C247.293 112.454 248.206 112.083 248.754 111.433C249.394 110.876 249.759 109.855 249.759 109.02C249.668 108.185 249.394 107.257 248.754 106.607Z" fill="#FFF1CE"/>
<path d="M47.7544 250.88C47.1151 250.231 46.293 249.859 45.3796 249.859C44.4662 249.859 43.5528 250.231 43.0047 250.88C42.4567 251.53 42 252.458 42 253.293C42 254.221 42.3654 255.149 43.0047 255.706C43.6441 256.356 44.4662 256.727 45.3796 256.727C46.293 256.727 47.2064 256.356 47.7544 255.706C48.3938 255.149 48.7592 254.128 48.7592 253.293C48.6678 252.458 48.3938 251.53 47.7544 250.88Z" fill="#FFF1CE"/>
<path d="M142.736 59.4461C132.853 64.419 121.743 66.8572 110.484 66.2184C104.05 65.8534 99.0972 60.2401 99.5174 53.7242C99.9376 47.2084 105.53 42.1431 111.963 42.5081C126.306 43.2841 140.142 36.3221 148.26 24.2442C151.888 18.8159 159.233 17.3714 164.563 20.9939C169.893 24.6164 171.252 32.0381 167.624 37.4664C161.184 47.0111 152.619 54.4733 142.736 59.4461Z" fill="#EDC75E"/>
<path d="M143.492 60.9946C132.085 66.733 119.365 69.5305 106.366 68.7544C100.828 68.3895 96.6272 63.6377 96.9045 57.9837C97.3155 52.375 102.049 48.0805 107.634 48.3097C126.484 49.4056 144.807 40.1881 155.417 24.2719C158.501 19.5693 164.815 18.3062 169.478 21.4751C174.097 24.5535 175.287 30.932 172.113 35.6798C164.813 46.6674 154.809 55.3015 143.492 60.9946Z" fill="#E18668"/>
<path d="M143.506 61.0215C154.91 55.2874 164.82 46.7036 172.117 35.7216C172.977 34.5014 173.437 33.1453 173.763 31.7438C173.055 30.9747 172.301 30.3411 171.368 29.7979C165.859 26.4933 158.646 28.4324 155.332 34.0367C147.977 46.5107 134.587 54.3686 120.243 54.494C113.764 54.4894 108.531 59.8211 108.47 66.3772C108.461 67.2815 108.499 68.0501 108.67 68.8641C120.82 69.2797 132.732 66.4397 143.506 61.0215Z" fill="#DB5955"/>
<path d="M149.376 73.1117C139.493 78.0845 128.383 80.5228 117.124 79.8839C110.69 79.5189 105.737 73.9056 106.157 67.3898C106.577 60.874 112.169 55.8086 118.603 56.1736C132.946 56.9497 146.781 49.9877 154.899 37.9097C158.528 32.4814 165.873 31.0369 171.203 34.6594C176.533 38.2819 177.892 45.7036 174.263 51.1319C167.824 60.6766 159.258 68.1388 149.376 73.1117Z" fill="#EDC75E"/>
<path d="M137.468 44.8673L136.106 42.0516C135.114 42.5507 134.123 43.0498 133.132 43.5488L134.495 46.3645C134.89 47.1819 135.829 47.5001 136.64 47.0918C137.541 46.6381 137.864 45.6847 137.468 44.8673Z" fill="#DB5955"/>
<path d="M114.389 52.0193C115.2 51.6109 115.523 50.6575 115.127 49.84L114.38 48.2959C113.169 48.3408 112.002 48.4766 110.747 48.4307L112.109 51.2464C112.639 52.1094 113.578 52.4276 114.389 52.0193Z" fill="#DB5955"/>
<path d="M145.527 40.8214C146.338 40.4132 146.661 39.4599 146.265 38.6425L144.991 36.0088C144.131 36.7803 143.228 37.4609 142.281 38.0508L143.292 40.1396C143.688 40.9569 144.716 41.2297 145.527 40.8214Z" fill="#DB5955"/>
<path d="M126.427 50.4006C127.238 49.9923 127.561 49.039 127.165 48.2216L126.155 46.1328C125.076 46.4502 123.997 46.7676 122.918 47.085L124.192 49.7187C124.678 50.4907 125.616 50.8088 126.427 50.4006Z" fill="#DB5955"/>
<path d="M154.112 32.0967C154.923 31.6884 155.246 30.735 154.851 29.9176L153.488 27.1019C152.717 28.0551 151.945 29.0083 151.174 29.9615L151.921 31.5056C152.363 32.1868 153.301 32.505 154.112 32.0967Z" fill="#DB5955"/>
<path d="M137.338 48.297C135.992 48.9734 134.472 49.0624 133.137 48.6096C132.024 48.1569 130.724 48.6979 130.177 49.8719C129.584 51.1814 128.37 52.129 126.936 52.6246C125.502 53.1203 123.985 52.9835 122.741 52.2597C121.674 51.6715 120.376 51.9866 119.608 52.9346C118.838 54.1084 117.446 54.9203 115.97 55.0998C114.495 55.2792 112.98 54.9165 111.871 54.0121C111.162 53.4694 111.082 52.3852 111.625 51.6629C112.168 50.9406 113.24 50.8512 113.95 51.3939C114.349 51.7556 114.973 51.8917 115.599 51.8018C116.225 51.712 116.72 51.3511 116.991 50.9899C118.755 48.6425 121.843 47.8772 124.331 49.3248C124.82 49.6414 125.4 49.6871 125.982 49.5069C126.564 49.3267 126.969 49.0109 127.243 48.4239C128.562 45.8502 131.521 44.5879 134.236 45.584C135.305 45.9463 136.651 45.2698 136.929 44.2311C137.803 41.4311 140.587 39.8073 143.397 40.3066C143.887 40.3974 144.513 40.3076 145.008 39.9466C145.502 39.5856 145.82 39.089 145.87 38.5018C146.254 35.6111 148.819 33.5354 151.632 33.5829C152.212 33.6286 152.751 33.358 153.202 32.9067C153.652 32.4554 153.836 31.9134 153.886 31.3262C153.895 30.4228 154.617 29.6103 155.51 29.6111C156.403 29.6118 157.2 30.3353 157.192 31.2387C157.223 32.6843 156.585 34.1292 155.548 35.2125C154.51 36.2958 153.076 36.7914 151.647 36.8354C150.397 36.7891 149.405 37.7369 149.215 38.9564C149.023 40.4018 148.207 41.7111 146.949 42.5683C145.69 43.4255 144.302 43.7857 142.831 43.5134C141.627 43.3316 140.504 44.0083 140.091 45.2276C139.588 46.492 138.594 47.6656 137.338 48.297Z" fill="#EDC75E"/>
<path d="M258.415 243.637C261.127 241.96 264.243 240.712 267.335 239.648C272.667 237.681 277.897 235.794 283.23 233.827C295.634 229.295 308.232 224.697 321.301 222.124C325.275 221.368 328.621 219.779 332.601 219.678C309.925 231.465 284.355 239.303 258.415 243.637Z" fill="#7CA661"/>
<path d="M253.596 245.242C261.428 241.844 269.025 238.132 276.488 234.028C279.872 232.161 283.359 230.216 286.284 227.631C289.414 224.888 291.891 221.494 294.682 218.517C299.715 213.234 305.885 209.138 312.043 205.133C311.12 211.453 307.912 216.896 303.441 221.415C298.879 225.922 293.452 229.28 287.971 232.351C284.883 234.072 281.807 235.701 278.508 236.925C276.586 237.499 258.166 245.596 253.596 245.242Z" fill="#AEDC90"/>
<path d="M268.051 238.556C268.051 238.556 267.284 240.876 268.263 241.852C268.263 241.852 250.35 248.981 246.327 247.303C242.395 245.637 244.816 243.359 247.341 243.803C249.866 244.247 263.304 240.978 268.051 238.556Z" fill="white"/>
</svg>
