<svg width="375" height="806" viewBox="0 0 375 806" fill="none" xmlns="http://www.w3.org/2000/svg">
<rect y="-6" width="375" height="812" fill="#70B9BE"/>
<path d="M501.913 -159.589C489.494 -156.136 462.665 -135.229 454.699 -79.2228C444.741 -9.21546 422.968 134.394 333.75 101.969C244.531 69.5429 192.773 10.9227 219.818 -14.9596C246.862 -40.8419 304.539 15.1429 241.077 91.6701C177.615 168.197 41.4773 158.219 -14.6871 55.1916" stroke="#3DA0A7"/>
<path d="M518 590.746C532.081 549.021 534.714 456.325 479.812 419.03C424.909 381.734 365.701 382.451 291 419.03C215.5 456 120.5 449 140 381.246C166.56 288.959 178.5 252.746 112 275.246C45.5 297.746 74.4765 237.629 -1.02476e-06 247.746C-59.5812 255.839 -120 344.746 -171 240.746" stroke="#3DA0A7"/>
</svg>
